<svg width="24" height="25" viewBox="0 0 24 25" fill="none" xmlns="http://www.w3.org/2000/svg">
<path d="M19.1471 14.3975L12.3971 21.1475C12.2917 21.2528 12.1487 21.312 11.9996 21.312C11.8506 21.312 11.7076 21.2528 11.6021 21.1475L4.85214 14.3975C4.75278 14.2909 4.69869 14.1498 4.70126 14.0041C4.70383 13.8584 4.76286 13.7193 4.86592 13.6163C4.96898 13.5132 5.10802 13.4542 5.25375 13.4516C5.39947 13.449 5.54051 13.5031 5.64714 13.6025L11.4371 19.3916V4.25C11.4371 4.10082 11.4964 3.95774 11.6019 3.85225C11.7074 3.74676 11.8505 3.6875 11.9996 3.6875C12.1488 3.6875 12.2919 3.74676 12.3974 3.85225C12.5029 3.95774 12.5621 4.10082 12.5621 4.25V19.3916L18.3521 13.6025C18.4588 13.5031 18.5998 13.449 18.7455 13.4516C18.8913 13.4542 19.0303 13.5132 19.1334 13.6163C19.2364 13.7193 19.2955 13.8584 19.298 14.0041C19.3006 14.1498 19.2465 14.2909 19.1471 14.3975Z" fill="#FE7449"/>
</svg>
