<svg width="51" height="67" viewBox="0 0 51 67" fill="none" xmlns="http://www.w3.org/2000/svg">
<path fill-rule="evenodd" clip-rule="evenodd" d="M15.3676 1.86426C9.22052 4.93777 13.3185 9.54786 22.0268 9.54786C28.5366 9.54786 32.5715 7.01275 34.0479 4.86924C36.1221 5.16757 39.2921 6.26293 41.8569 8.53443C44.3555 10.7472 46.335 14.1131 46.1531 19.2087C45.9788 24.088 42.9683 28.0312 38.8678 31.0683C34.7767 34.0984 29.8831 36.0007 26.6644 36.8054C25.5928 37.0733 24.9412 38.1591 25.2091 39.2307C25.477 40.3023 26.5629 40.9538 27.6345 40.6859C31.2458 39.7831 36.6485 37.6898 41.2486 34.2826C45.8393 30.8824 49.915 25.9465 50.1505 19.3514C50.3783 12.9725 47.833 8.48386 44.5089 5.53995C41.3877 2.77566 37.6308 1.4083 34.9405 0.960171C34.9209 0.895689 34.8863 0.853552 34.8332 0.838929C30.0778 -0.470716 19.762 -0.332958 15.3676 1.86426ZM15.5181 40.8439C16.1112 39.912 15.8365 38.6758 14.9046 38.0828C13.9727 37.4898 12.7365 37.7645 12.1435 38.6964C11.4544 39.7793 10.7974 41.1441 10.4159 42.613C10.037 44.0719 9.89662 45.7663 10.4108 47.4106C10.9451 49.119 12.1299 50.5853 14.0399 51.5807C15.8914 52.5456 18.3606 53.0397 21.5146 53.0397C28.7527 53.0397 30.7708 55.0412 31.3114 56.3928C31.6227 57.1709 31.6422 58.1313 31.3829 59.2207C31.1245 60.3057 30.6188 61.3856 30.0637 62.2738C29.4783 63.2105 29.763 64.4444 30.6997 65.0298C31.6364 65.6152 32.8703 65.3305 33.4557 64.3938C34.1812 63.2329 34.8921 61.7516 35.2741 60.1472C35.655 58.5473 35.7386 56.6903 35.0253 54.9072C33.5169 51.1363 29.1318 49.0397 21.5146 49.0397C18.7265 49.0397 16.9653 48.5947 15.8885 48.0335C14.8701 47.5028 14.4285 46.856 14.2285 46.2167C14.0085 45.5132 14.0261 44.625 14.2875 43.6186C14.5463 42.6222 15.012 41.6393 15.5181 40.8439ZM20.4901 13.6453H0C0 27.9883 12.2941 33.2816 18.4411 34.1354V41.3013L18.4411 41.3069V45.4049C18.4411 46.5366 19.3585 47.4539 20.4901 47.4539C21.6217 47.4539 22.5391 46.5366 22.5391 45.4049V41.3069L22.5391 41.3029V34.1354C28.6861 33.2816 40.9802 27.9883 40.9802 13.6453H20.4901ZM20.4901 54.6255C19.3585 54.6255 18.4411 55.5429 18.4411 56.6745V62.8215H14.3431C13.2115 62.8215 12.2941 63.7389 12.2941 64.8705C12.2941 66.0022 13.2115 66.9195 14.3431 66.9195H20.4901H26.6372C27.7688 66.9195 28.6862 66.0022 28.6862 64.8705C28.6862 63.7389 27.7688 62.8215 26.6372 62.8215H22.5391V56.6745C22.5391 55.5429 21.6217 54.6255 20.4901 54.6255Z" fill="#12AD7A"/>
</svg>
