<svg width="60" height="60" viewBox="0 0 60 60" fill="none" xmlns="http://www.w3.org/2000/svg">
<path d="M30.0001 0C17.2487 0 6.87469 10.374 6.87469 23.1254C6.87469 28.4139 8.70563 33.581 12.0315 37.6819C12.0374 37.6898 12.0434 37.6977 12.0495 37.7054L27.6148 57.6562H15.5861C14.9388 57.6562 14.4142 58.1809 14.4142 58.8281C14.4142 59.4754 14.9388 60 15.5861 60H39.4142C40.0614 60 40.586 59.4754 40.586 58.8281C40.586 58.1809 40.0614 57.6562 39.4142 57.6562H32.3861L47.8693 37.8199C47.895 37.7871 47.9187 37.7531 47.9405 37.7182C51.2851 33.6098 53.1254 28.4341 53.1254 23.1254C53.1256 10.374 42.7515 0 30.0001 0ZM46.0295 36.3525C45.9899 36.4004 45.9541 36.4515 45.9226 36.5051L30.0004 56.9038L13.9308 36.3068C13.9156 36.2854 13.8998 36.2645 13.8832 36.2442C10.875 32.5534 9.21833 27.8944 9.21833 23.1254C9.21844 11.6664 18.5411 2.34375 30.0001 2.34375C41.4592 2.34375 50.7818 11.6664 50.7818 23.1254C50.7818 27.9457 49.0941 32.6432 46.0295 36.3525Z" fill="white"/>
<path d="M41.4503 12.0404C38.9408 9.53094 35.7613 7.94668 32.2552 7.45883C28.8648 6.98703 25.3459 7.61704 22.3472 9.2327C21.7774 9.53973 21.5644 10.2505 21.8714 10.8202C22.1783 11.39 22.889 11.6031 23.459 11.296C28.7895 8.42375 35.5065 9.41129 39.7929 13.6978C42.4048 16.3095 43.8431 19.782 43.8431 23.4758C43.8431 23.9244 43.8215 24.3697 43.7795 24.8107L39.4845 20.5156C39.0268 20.058 38.2848 20.058 37.8271 20.5156L32.6869 25.6558L27.0229 19.9918V19.2759L31.942 16.4359C32.1202 16.333 32.2682 16.1851 32.371 16.007C32.4739 15.8288 32.528 15.6267 32.528 15.421C32.528 15.2153 32.4739 15.0132 32.371 14.8351C32.2682 14.6569 32.1202 14.509 31.942 14.4062L26.4369 11.2278C26.2588 11.125 26.0567 11.071 25.851 11.071C25.6453 11.071 25.4433 11.1252 25.2652 11.228C25.0871 11.3308 24.9391 11.4787 24.8363 11.6568C24.7334 11.8349 24.6792 12.037 24.6791 12.2427V19.9917L16.8927 27.778C15.7457 24.2511 16.0105 20.306 17.8352 16.9194C18.1423 16.3496 17.9292 15.6389 17.3595 15.3318C16.7896 15.0248 16.079 15.2379 15.7719 15.8076C14.1561 18.8062 13.526 22.325 13.9978 25.7157C14.4857 29.2217 16.0699 32.4014 18.5794 34.9108C21.6339 37.9653 25.695 39.6475 30.0148 39.6475C34.3345 39.6475 38.3956 37.9654 41.45 34.9109C44.5044 31.8566 46.1865 27.7954 46.1865 23.4758C46.1869 19.156 44.5048 15.0949 41.4503 12.0404ZM27.023 14.2722L29.0125 15.4209L27.023 16.5695V14.2722ZM30.0151 37.3038C26.3215 37.3038 22.8489 35.8654 20.2371 33.2536C19.3054 32.3211 18.5136 31.2585 17.8866 30.099L25.8512 22.1345L38.2808 34.5642C35.9063 36.342 33.0347 37.3038 30.0151 37.3038ZM40.0359 33.0047L34.3444 27.3131L38.6558 23.0015L43.2281 27.5739C42.6065 29.5873 41.5249 31.4408 40.0359 33.0047Z" fill="white"/>
<path d="M20.2409 12.0439L20.2311 12.0342C19.7747 11.5752 19.0328 11.5729 18.5739 12.0293C18.1148 12.4856 18.1126 13.2275 18.569 13.6865L18.5787 13.6963C18.6875 13.806 18.8169 13.893 18.9596 13.9524C19.1023 14.0117 19.2553 14.0422 19.4098 14.042C19.7085 14.042 20.0074 13.9284 20.2359 13.7012C20.695 13.2449 20.6972 12.5029 20.2409 12.0439ZM45.2427 57.9998C45.0247 57.7819 44.7224 57.6565 44.4142 57.6565C44.106 57.6565 43.8036 57.7819 43.5857 57.9998C43.3677 58.2178 43.2423 58.5201 43.2423 58.8283C43.2423 59.1365 43.3677 59.4389 43.5857 59.6569C43.8036 59.8748 44.106 60.0002 44.4142 60.0002C44.7224 60.0002 45.0247 59.8748 45.2427 59.6569C45.4607 59.4389 45.5861 59.1365 45.5861 58.8283C45.5861 58.5201 45.4607 58.2178 45.2427 57.9998Z" fill="white"/>
</svg>
