<svg width="24" height="25" viewBox="0 0 24 25" fill="none" xmlns="http://www.w3.org/2000/svg">
<path d="M17.613 13.348L23.878 19.613L20.707 22.784C20.1543 23.3344 19.4978 23.7695 18.7756 24.0641C18.0534 24.3586 17.2799 24.5068 16.5 24.5C9.25198 24.5 -1.85217e-05 15.248 -1.85217e-05 8C-0.00636183 7.21998 0.142033 6.44645 0.436581 5.72415C0.731129 5.00186 1.16598 4.34514 1.71598 3.792L4.88698 0.622L11.152 6.887L7.02698 11.012C8.2533 13.9263 10.5686 16.2469 13.48 17.48L17.613 13.348ZM22 10.5H24C23.9971 7.84873 22.9426 5.30688 21.0678 3.43215C19.1931 1.55742 16.6513 0.502912 14 0.5V2.5C16.121 2.50238 18.1544 3.346 19.6542 4.84578C21.154 6.34555 21.9976 8.379 22 10.5ZM18 10.5H20C19.9984 8.90919 19.3657 7.38399 18.2409 6.25911C17.116 5.13424 15.5908 4.50159 14 4.5V6.5C15.0608 6.5 16.0783 6.92143 16.8284 7.67157C17.5786 8.42172 18 9.43913 18 10.5Z" fill="#FE7449"/>
</svg>
