<svg width="38" height="38" viewBox="0 0 38 38" fill="none" xmlns="http://www.w3.org/2000/svg">
<rect width="38" height="38" rx="19" fill="#FE7449"/>
<g clip-path="url(#clip0_126_953)">
<path d="M23.2097 19.636L27.9084 24.3347L25.5302 26.713C25.1157 27.1258 24.6233 27.4521 24.0816 27.673C23.54 27.894 22.9599 28.0051 22.3749 28C16.9389 28 9.9999 21.061 9.9999 15.625C9.99514 15.04 10.1064 14.4598 10.3274 13.9181C10.5483 13.3764 10.8744 12.8839 11.2869 12.469L13.6652 10.0915L18.3639 14.7902L15.2702 17.884C16.1899 20.0697 17.9263 21.8102 20.1099 22.735L23.2097 19.636ZM26.4999 17.5H27.9999C27.9977 15.5115 27.2068 13.6052 25.8008 12.1991C24.3947 10.7931 22.4884 10.0022 20.4999 9.99999V11.5C22.0907 11.5018 23.6157 12.1345 24.7406 13.2593C25.8654 14.3842 26.4981 15.9092 26.4999 17.5ZM23.4999 17.5H24.9999C24.9987 16.3069 24.5242 15.163 23.6806 14.3193C22.8369 13.4757 21.693 13.0012 20.4999 13V14.5C21.2956 14.5 22.0586 14.8161 22.6212 15.3787C23.1838 15.9413 23.4999 16.7043 23.4999 17.5Z" fill="white"/>
</g>
<defs>
<clipPath id="clip0_126_953">
<rect width="18" height="18" fill="white" transform="translate(10 10)"/>
</clipPath>
</defs>
</svg>
