<svg width="24" height="25" viewBox="0 0 24 25" fill="none" xmlns="http://www.w3.org/2000/svg">
<path d="M13.3444 18.4778C10.2 16.8667 7.62222 14.3 6.02222 11.1556L8.77371 9.1036C9.09322 8.86532 9.24072 8.46006 9.14912 8.07216L8.0152 3.27018C7.90862 2.81884 7.50572 2.5 7.04197 2.5H3.11111C2.5 2.5 2 3 2 3.61111C2 14.0444 10.4556 22.5 20.8889 22.5C21.5 22.5 22 22 22 21.3889V17.4567C22 16.9935 21.682 16.591 21.2315 16.4838L16.4299 15.3414C16.041 15.2489 15.6343 15.3969 15.3958 15.7177L13.3444 18.4778Z" fill="#12AD7A"/>
</svg>
