<svg width="50" height="50" viewBox="0 0 50 50" fill="none" xmlns="http://www.w3.org/2000/svg">
<g clip-path="url(#clip0_18_2307)">
<path fill-rule="evenodd" clip-rule="evenodd" d="M14.8438 1.46484C14.8438 0.655833 15.4996 0 16.3086 0H22.168C22.977 0 23.6328 0.655833 23.6328 1.46484V7.42188C23.6328 9.8489 25.6003 11.8164 28.0273 11.8164H28.1697C30.1897 8.33018 33.9409 5.95703 38.2812 5.95703C44.7533 5.95703 50 11.2037 50 17.6758V19.1406C50 34.5117 37.5392 46.9727 22.168 46.9727C18.0807 46.9727 14.5941 44.5722 12.95 41.1334C10.6525 41.3497 8.78906 43.2793 8.78906 45.5078V48.5352C8.78906 49.3442 8.13323 50 7.32422 50H1.46484C0.655833 50 0 49.3442 0 48.5352V45.5078C0 38.3445 5.88198 32.5642 12.937 32.3315C14.5757 28.8781 18.0698 26.4648 22.168 26.4648C24.595 26.4648 26.5625 24.4973 26.5625 22.0703V20.525C19.9707 19.7963 14.8438 14.2077 14.8438 7.42188V1.46484ZM17.7734 2.92969V7.42188C17.7734 13.0849 22.3642 17.6758 28.0273 17.6758C28.8364 17.6758 29.4922 18.3316 29.4922 19.1406V22.0703C29.4922 26.1154 26.213 29.3945 22.168 29.3945C18.9963 29.3945 16.3107 31.4294 15.2973 34.2798C15.0897 34.8638 14.5369 35.2539 13.9171 35.2539H13.3789C7.68413 35.2539 2.92969 39.8759 2.92969 45.5078V47.0703H5.85938V45.5078C5.85938 41.4012 9.39673 38.1836 13.3789 38.1836H13.9171C14.5369 38.1836 15.0897 38.5737 15.2973 39.1578C16.3106 42.0081 18.9962 44.043 22.168 44.043C35.9212 44.043 47.0703 32.8937 47.0703 19.1406V17.6758C47.0703 12.8217 43.1353 8.88672 38.2812 8.88672C34.7926 8.88672 31.7934 10.9391 30.3739 13.9124C30.1307 14.4218 29.6164 14.7461 29.052 14.7461H28.0273C23.9823 14.7461 20.7031 11.4669 20.7031 7.42188V2.92969H17.7734Z" fill="#12AD7A"/>
<path fill-rule="evenodd" clip-rule="evenodd" d="M39.0938 12.0625C39.7669 12.5112 39.9488 13.4207 39.5001 14.0938L38.0886 16.211H41.2109C41.7512 16.211 42.2475 16.5083 42.5025 16.9846C42.7574 17.4609 42.7294 18.0389 42.4298 18.4884L39.5001 22.8829C39.0513 23.556 38.1418 23.7379 37.4687 23.2892C36.7956 22.8404 36.6137 21.9309 37.0624 21.2578L38.4739 19.1407H35.3516C34.8113 19.1407 34.315 18.8433 34.06 18.367C33.8051 17.8907 33.8331 17.3128 34.1327 16.8633L37.0624 12.4687C37.5112 11.7956 38.4207 11.6137 39.0938 12.0625ZM20.7031 27.9297C20.7031 27.1207 21.359 26.4649 22.168 26.4649C27.3566 26.4649 30.6626 28.0493 33.7373 29.5229L33.7696 29.5384C36.7988 30.9902 39.6008 32.3243 44.1051 32.3243C44.9141 32.3243 45.5699 32.9801 45.5699 33.7891C45.5699 34.5981 44.9141 35.2539 44.1051 35.2539C38.9166 35.2539 35.6106 33.6695 32.5359 32.1959L32.5035 32.1804C29.4744 30.7287 26.6723 29.3946 22.168 29.3946C21.359 29.3946 20.7031 28.7387 20.7031 27.9297Z" fill="#12AD7A"/>
</g>
<defs>
<clipPath id="clip0_18_2307">
<rect width="50" height="50" fill="white"/>
</clipPath>
</defs>
</svg>
