<svg width="50" height="50" viewBox="0 0 50 50" fill="none" xmlns="http://www.w3.org/2000/svg">
<g clip-path="url(#clip0_18_2343)">
<path fill-rule="evenodd" clip-rule="evenodd" d="M17.9447 2.92848C16.5682 2.92848 15.8184 4.53578 16.7026 5.59049L21.5832 11.4128V22.2665H28.4169V11.4129L33.2974 5.59064C34.1817 4.53578 33.4318 2.92848 32.0553 2.92848H29.408C29.408 2.92848 29.408 2.92848 29.408 2.92848C28.8821 2.9285 28.3667 3.07599 27.9204 3.3542C27.0093 3.92214 25.9573 4.22321 24.8837 4.22321C23.8101 4.22321 22.758 3.92214 21.847 3.3542C21.4008 3.07599 20.8854 2.92848 20.3595 2.92848C20.3595 2.92848 20.3595 2.92848 20.3595 2.92848H17.9447ZM14.4583 7.47182C11.9764 4.5112 14.0814 0 17.9447 0H20.3595C21.4331 9.68175e-06 22.4852 0.301095 23.3962 0.869056M14.4583 7.47182C14.4583 7.4718 14.4583 7.47184 14.4583 7.47182V7.47182ZM14.4583 7.47182L18.6547 12.4779V25.1949H31.3453V12.478L35.5417 7.47194C35.5417 7.47195 35.5417 7.47193 35.5417 7.47194C38.0235 4.51128 35.9186 0 32.0553 0H29.4079C28.3344 2.72765e-05 27.2823 0.301111 26.3712 0.869056C25.9249 1.14726 25.4096 1.29473 24.8837 1.29473C24.3578 1.29473 23.8425 1.14724 23.3962 0.869056" fill="#12AD7A"/>
<path fill-rule="evenodd" clip-rule="evenodd" d="M11.0559 10.5862C12.1163 9.98496 13.3143 9.66894 14.5333 9.66895C18.4268 9.66895 21.5832 12.8253 21.5832 16.7189V23.7307H18.6547V16.7189C18.6547 14.4427 16.8094 12.5974 14.5332 12.5974C13.8207 12.5974 13.1203 12.7822 12.5004 13.1336C11.8805 13.4851 11.3624 13.9913 10.9965 14.6028L8.56993 18.6585L8.33972 18.8312C7.30915 19.6041 6.4727 20.6064 5.89659 21.7586C5.32049 22.9108 5.02057 24.1813 5.02058 25.4695V30.5642C5.02058 33.1761 6.25025 35.6354 8.33973 37.2026L8.92541 37.6418V40.7341C8.92541 42.6282 10.4608 44.1637 12.3549 44.1637C12.9671 44.1637 13.5682 43.9998 14.0957 43.6891C14.6231 43.3783 15.0578 42.9321 15.3546 42.3966L16.8544 39.6908C17.5822 38.3775 18.6484 37.283 19.9421 36.5209C21.2358 35.7588 22.7099 35.3569 24.2114 35.3568H25.7886C27.2901 35.3568 28.7642 35.7588 30.058 36.5209C31.3517 37.283 32.4178 38.3775 33.1456 39.6907C33.1456 39.6907 33.1456 39.6907 33.1456 39.6907L34.6454 42.3966C34.9422 42.9321 35.3769 43.3783 35.9043 43.6891C36.4318 43.9998 37.0329 44.1637 37.6451 44.1637C39.5392 44.1637 41.0746 42.6282 41.0746 40.7341V37.6418L41.6603 37.2026C42.6909 36.4296 43.5273 35.4274 44.1034 34.2752C44.6795 33.1229 44.9794 31.8524 44.9794 30.5642V25.4695C44.9794 22.8577 43.7498 20.3983 41.6603 18.8312L41.4301 18.6585L39.0036 14.6028C38.6377 13.9913 38.1196 13.4851 37.4997 13.1336C36.8798 12.7822 36.1794 12.5974 35.4669 12.5974C33.1907 12.5974 31.3454 14.4427 31.3454 16.7189V23.7307H28.4169V16.7189C28.4169 12.8253 31.5733 9.66895 35.4669 9.66895C36.6858 9.66894 37.8838 9.98496 38.9442 10.5862C40.0045 11.1874 40.8908 12.0532 41.5166 13.0992L43.6529 16.67C46.3364 18.7958 47.9079 22.0352 47.9079 25.4695V30.5642C47.9079 32.307 47.5021 34.026 46.7227 35.5848C46.0555 36.9192 45.1302 38.1049 44.0031 39.0746V40.7341C44.0031 44.2456 41.1565 47.0921 37.6451 47.0921C36.5101 47.0921 35.3959 46.7883 34.418 46.2123C33.4401 45.6363 32.6342 44.809 32.084 43.8163L30.5843 41.1104C30.1098 40.2543 29.4149 39.5408 28.5716 39.0441C27.7283 38.5473 26.7674 38.2853 25.7886 38.2853H24.2114C23.2326 38.2853 22.2717 38.5473 21.4285 39.0441C20.5852 39.5409 19.8902 40.2543 19.4158 41.1104L17.916 43.8163C17.3658 44.809 16.5599 45.6363 15.582 46.2123C14.6041 46.7883 13.4899 47.0921 12.3549 47.0921C8.84348 47.0921 5.99693 44.2456 5.99693 40.7341V39.0747C3.52739 36.9505 2.0921 33.8464 2.0921 30.5642V25.4695C2.09209 23.7267 2.49786 22.0078 3.27728 20.4489C4.01232 18.9788 5.06064 17.6892 6.34706 16.67L8.4835 13.0992C8.48349 13.0992 8.4835 13.0992 8.4835 13.0992C9.10931 12.0533 9.99563 11.1874 11.0559 10.5862Z" fill="#12AD7A"/>
<path fill-rule="evenodd" clip-rule="evenodd" d="M29.8811 13.4802H20.1189V10.5518H29.8811V13.4802ZM29.8811 19.3376H20.1189V16.4091H29.8811V19.3376ZM11.3662 22.5232V19.5945H14.2947V22.5232H11.3662ZM35.7053 22.5232V19.5945H38.6338V22.5232H35.7053ZM7.94943 30.3329V27.4043H10.8779V30.3329H7.94943ZM39.1221 30.3329V27.4043H42.0505V30.3329H39.1221ZM18.6547 31.6675V28.7389H21.5831V31.6675H18.6547ZM28.4168 31.6675V28.7389H31.3453V31.6675H28.4168ZM12.7832 36.3845V33.4559H15.7116V36.3845H12.7832ZM34.2883 36.3845V33.4559H37.2168V36.3845H34.2883ZM21.5831 47.0715L28.4168 47.0713V44.1426H21.5831V47.0715ZM21.5831 41.2142V38.1544H18.6547V50L31.3453 49.9998V38.1544H28.4168V41.2142H21.5831Z" fill="#12AD7A"/>
</g>
<defs>
<clipPath id="clip0_18_2343">
<rect width="50" height="50" fill="white"/>
</clipPath>
</defs>
</svg>
