<svg width="50" height="50" viewBox="0 0 50 50" fill="none" xmlns="http://www.w3.org/2000/svg">
<path fill-rule="evenodd" clip-rule="evenodd" d="M7.52232 17.4316C7.92683 16.731 8.82271 16.491 9.52333 16.8955L12.0605 18.3603C12.7612 18.7648 13.0012 19.6607 12.5967 20.3613C12.1922 21.0619 11.2963 21.302 10.5957 20.8975L8.0585 19.4327C7.35788 19.0282 7.11782 18.1323 7.52232 17.4316ZM42.4777 17.4316C42.8822 18.1323 42.6421 19.0282 41.9415 19.4327L39.4043 20.8975C38.7037 21.302 37.8078 21.0619 37.4033 20.3613C36.9988 19.6607 37.2388 18.7648 37.9395 18.3603L40.4767 16.8955C41.1773 16.491 42.0732 16.731 42.4777 17.4316ZM19.8309 18.5337C20.3725 19.1347 20.3244 20.0609 19.7234 20.6025C18.4309 21.7673 17.6758 23.3223 17.6758 25C17.6758 26.6777 18.4309 28.2327 19.7234 29.3975C20.3244 29.9391 20.3725 30.8653 19.8309 31.4663C19.2894 32.0673 18.3631 32.1154 17.7621 31.5738C15.924 29.9173 14.7461 27.5983 14.7461 25C14.7461 22.4017 15.924 20.0827 17.7621 18.4262C18.3631 17.8846 19.2894 17.9327 19.8309 18.5337ZM30.1691 18.5337C30.7106 17.9327 31.6369 17.8846 32.2379 18.4262C34.076 20.0827 35.2539 22.4017 35.2539 25C35.2539 27.5983 34.076 29.9173 32.2379 31.5738C31.6369 32.1154 30.7106 32.0673 30.1691 31.4663C29.6275 30.8653 29.6756 29.9391 30.2766 29.3975C31.5691 28.2327 32.3242 26.6777 32.3242 25C32.3242 23.3223 31.5691 21.7673 30.2766 20.6025C29.6756 20.0609 29.6275 19.1347 30.1691 18.5337ZM4.00391 25C4.00391 24.191 4.65974 23.5352 5.46875 23.5352H8.39844C9.20745 23.5352 9.86328 24.191 9.86328 25C9.86328 25.809 9.20745 26.4648 8.39844 26.4648H5.46875C4.65974 26.4648 4.00391 25.809 4.00391 25ZM40.1367 25C40.1367 24.191 40.7926 23.5352 41.6016 23.5352H44.5312C45.3403 23.5352 45.9961 24.191 45.9961 25C45.9961 25.809 45.3403 26.4648 44.5312 26.4648H41.6016C40.7926 26.4648 40.1367 25.809 40.1367 25ZM12.5967 29.6387C13.0012 30.3393 12.7612 31.2352 12.0605 31.6397L9.52333 33.1045C8.82271 33.509 7.92683 33.269 7.52232 32.5684C7.11782 31.8677 7.35788 30.9718 8.0585 30.5673L10.5957 29.1025C11.2963 28.698 12.1922 28.9381 12.5967 29.6387ZM37.4033 29.6387C37.8078 28.9381 38.7037 28.698 39.4043 29.1025L41.9415 30.5673C42.6421 30.9718 42.8822 31.8677 42.4777 32.5684C42.0732 33.269 41.1773 33.509 40.4767 33.1045L37.9395 31.6397C37.2388 31.2352 36.9988 30.3393 37.4033 29.6387Z" fill="#12AD7A"/>
<path fill-rule="evenodd" clip-rule="evenodd" d="M18.6523 1.46484C18.6523 0.655833 19.3082 0 20.1172 0H29.8828C30.6918 0 31.3477 0.655833 31.3477 1.46484V9.37437C33.6412 10.3309 35.2539 12.5926 35.2539 15.2344C35.2539 18.7401 32.4119 21.582 28.9062 21.582C27.4228 21.582 26.0707 21.0678 25 20.2217C23.9294 21.0679 22.5772 21.5821 21.0938 21.5821C17.5879 21.5821 14.7461 18.7401 14.7461 15.2345C14.7461 12.5927 16.3588 10.331 18.6523 9.37445V1.46484ZM21.582 2.92969V10.45C21.582 11.1466 21.0914 11.7469 20.4087 11.8855C18.8488 12.2023 17.6758 13.583 17.6758 15.2345C17.6758 17.1222 19.206 18.6524 21.0938 18.6524C22.2054 18.6524 23.1929 18.1115 23.8251 17.2625C24.1015 16.8912 24.5371 16.6725 25 16.6725C25.4628 16.6725 25.8984 16.8912 26.1749 17.2624C26.8071 18.1114 27.7946 18.6523 28.9062 18.6523C30.7939 18.6523 32.3242 17.122 32.3242 15.2344C32.3242 13.5829 31.1511 12.2022 29.5913 11.8854C28.9086 11.7468 28.418 11.1465 28.418 10.4499V2.92969H21.582ZM25 29.7784C26.0706 28.9322 27.4228 28.418 28.9062 28.4179H28.9062C32.4119 28.4179 35.2539 31.2598 35.2539 34.7655C35.2539 37.4073 33.6412 39.669 31.3477 40.6255V48.5352C31.3477 49.3442 30.6918 50 29.8828 50H20.1172C19.3082 50 18.6523 49.3442 18.6523 48.5352V40.6256C16.3588 39.6691 14.7461 37.4074 14.7461 34.7656C14.7461 31.2599 17.5881 28.418 21.0938 28.418C22.5772 28.418 23.9294 28.9322 25 29.7784ZM28.9062 31.3476C27.7946 31.3477 26.8071 31.8886 26.1749 32.7376C25.8985 33.1089 25.4629 33.3276 25 33.3276C24.5371 33.3276 24.1015 33.1089 23.8251 32.7376C23.1929 31.8886 22.2054 31.3477 21.0938 31.3477C19.2061 31.3477 17.6758 32.878 17.6758 34.7656C17.6758 36.4171 18.8488 37.7978 20.4087 38.1146C21.0914 38.2532 21.582 38.8534 21.582 39.5501V47.0703H28.418V39.55C28.418 38.8534 28.9086 38.2531 29.5913 38.1145C31.1511 37.7977 32.3242 36.417 32.3242 34.7655C32.3242 32.8779 30.794 31.3476 28.9063 31.3476" fill="#12AD7A"/>
</svg>
