<svg width="50" height="50" viewBox="0 0 50 50" fill="none" xmlns="http://www.w3.org/2000/svg">
<g clip-path="url(#clip0_18_2299)">
<path d="M43.7884 46.1658C43.4254 46.165 43.0734 46.0409 42.7901 45.8138C42.5068 45.5868 42.309 45.2702 42.2293 44.916C41.6451 42.3151 41.6269 39.8311 41.6079 37.4287C41.594 35.6 41.5819 33.8718 41.3271 32.1592C41.2916 31.9178 41.3116 31.6715 41.3856 31.439C41.4597 31.2066 41.5858 30.994 41.7543 30.8176C49.0709 23.1752 46.9761 18.9171 44.3249 13.5264C42.6514 10.1237 40.755 6.26786 41.4467 1.37541C41.5079 0.956015 41.7323 0.577785 42.0711 0.323092C42.4099 0.0683994 42.8355 -0.0421279 43.2554 0.0155805C43.4635 0.0450307 43.6637 0.115181 43.8447 0.222026C44.0256 0.32887 44.1838 0.470315 44.31 0.638282C44.4363 0.806249 44.5283 0.997447 44.5806 1.20096C44.633 1.40446 44.6448 1.6163 44.6153 1.82435C44.0615 5.74004 45.5842 8.83585 47.1971 12.1137C49.8293 17.4663 52.8063 23.5184 44.5945 32.466C44.7843 34.1388 44.7964 35.7959 44.8085 37.4044C44.8267 39.7401 44.8423 41.9476 45.352 44.214C45.4048 44.4483 45.4042 44.6916 45.3501 44.9256C45.2961 45.1597 45.1901 45.3786 45.0399 45.5661C44.8897 45.7536 44.6992 45.9049 44.4826 46.0087C44.2659 46.1125 44.0287 46.1662 43.7884 46.1658ZM22.9602 29.0487C22.6881 29.0483 22.4206 28.9786 22.183 28.8461C21.9453 28.7136 21.7453 28.5227 21.6019 28.2915C21.4585 28.0602 21.3765 27.7962 21.3635 27.5244C21.3505 27.2526 21.407 26.982 21.5276 26.7381C22.1707 25.4398 23.4508 24.613 24.8687 24.5818C26.3083 24.5194 27.6716 25.3514 28.403 26.6749C28.5968 27.0455 28.6377 27.4772 28.5172 27.8777C28.3967 28.2782 28.1242 28.6156 27.7581 28.8177C27.392 29.0199 26.9613 29.0707 26.5581 28.9593C26.155 28.848 25.8115 28.5833 25.601 28.2219C25.3852 27.8301 25.0802 27.7721 24.9398 27.7807C24.8046 27.7833 24.5532 27.8362 24.3946 28.1586C24.2624 28.426 24.0579 28.6511 23.8045 28.8084C23.551 28.9657 23.2586 29.0489 22.9602 29.0487Z" fill="#12AD7A"/>
<path d="M25.2587 37.9115C25.068 37.9123 24.8774 37.9123 24.6867 37.9115C17.9265 37.9115 11.897 36.4104 6.28087 33.3241C5.90896 33.1198 5.63345 32.776 5.51497 32.3686C5.39648 31.9611 5.44471 31.5232 5.64906 31.1513C5.8534 30.7794 6.19712 30.5039 6.60459 30.3854C7.01207 30.2669 7.44993 30.3152 7.82184 30.5195C12.9535 33.3397 18.4795 34.7125 24.7066 34.7125H25.237C31.4841 34.7125 37.0092 33.3397 42.1409 30.5195C42.325 30.4183 42.5273 30.3544 42.7362 30.3314C42.945 30.3084 43.1564 30.3267 43.3581 30.3854C43.5599 30.4441 43.7481 30.5419 43.9121 30.6733C44.076 30.8048 44.2125 30.9672 44.3137 31.1513C44.4148 31.3355 44.4788 31.5378 44.5018 31.7466C44.5248 31.9555 44.5064 32.1668 44.4478 32.3686C44.3891 32.5703 44.2913 32.7586 44.1598 32.9225C44.0284 33.0865 43.866 33.2229 43.6819 33.3241C38.0675 36.4104 32.0371 37.9115 25.2587 37.9115Z" fill="#12AD7A"/>
<path d="M24.9822 50C21.1697 50 16.6923 46.4162 12.3615 42.9495C9.93653 41.0089 7.64588 39.175 6.19158 38.6247C5.80782 38.4651 5.50117 38.1625 5.33648 37.7809C5.17179 37.3993 5.16197 36.9687 5.3091 36.58C5.45623 36.1913 5.74877 35.875 6.12486 35.6981C6.50095 35.5212 6.93109 35.4975 7.32434 35.632C9.25098 36.3618 11.6188 38.2564 14.361 40.4525C17.8944 43.2805 22.2929 46.801 24.9822 46.801C27.6698 46.801 32.0665 43.2814 35.5991 40.4543C36.5741 39.6743 37.5197 38.9168 38.4115 38.2416C38.7508 38.0025 39.1696 37.9044 39.5798 37.9682C39.9899 38.032 40.3593 38.2526 40.6099 38.5835C40.8605 38.9144 40.9728 39.3297 40.923 39.7418C40.8733 40.1538 40.6655 40.5305 40.3433 40.7923C39.4732 41.451 38.551 42.1894 37.5986 42.9512C33.2695 46.4179 28.793 50 24.9822 50ZM36.4606 15.3507C31.8576 15.3507 28.0303 12.9058 26.5509 9.74844C26.4618 9.5582 26.411 9.35227 26.4015 9.14241C26.392 8.93254 26.4238 8.72286 26.4954 8.52532C26.5669 8.32778 26.6766 8.14627 26.8182 7.99113C26.9599 7.83599 27.1307 7.71028 27.321 7.62116C27.5112 7.53205 27.7171 7.48127 27.927 7.47174C28.1369 7.46221 28.3465 7.49411 28.5441 7.56561C28.7416 7.63712 28.9231 7.74683 29.0783 7.88849C29.2334 8.03015 29.3591 8.20097 29.4482 8.39121C30.6625 10.98 35.1528 13.4579 40.4266 11.3657C40.8178 11.2247 41.2486 11.2416 41.6277 11.4127C42.0068 11.5839 42.3044 11.8958 42.4574 12.2825C42.6105 12.6692 42.6071 13.1003 42.4479 13.4846C42.2886 13.8688 41.9861 14.1759 41.6044 14.341C39.8398 15.0404 38.1012 15.3507 36.4606 15.3507Z" fill="#12AD7A"/>
<path d="M36.1469 10.4601C35.5749 10.4601 35.0107 10.2261 34.612 9.81966C34.4113 9.61944 34.2522 9.38153 34.1438 9.11961C34.0353 8.85768 33.9797 8.57691 33.9802 8.29343C33.9802 7.72228 34.2055 7.15807 34.612 6.75939C35.4189 5.95338 36.8741 5.95338 37.6714 6.75939C38.0787 7.15807 38.3128 7.72142 38.3128 8.29343C38.3128 8.85677 38.0779 9.42099 37.6714 9.81966C37.472 10.0215 37.2346 10.182 36.973 10.2919C36.7114 10.4018 36.4307 10.459 36.1469 10.4601ZM6.17516 46.1659C5.93498 46.1665 5.69777 46.1129 5.48114 46.0092C5.26452 45.9055 5.07406 45.7543 4.92391 45.5668C4.77376 45.3794 4.6678 45.1605 4.61389 44.9265C4.55998 44.6924 4.55951 44.4492 4.61252 44.215C5.12126 41.9486 5.13773 39.7411 5.15507 37.4054C5.1672 35.7969 5.17933 34.1389 5.36914 32.467C-2.84272 23.5194 0.134352 17.4664 2.76734 12.1146C4.37938 8.83511 5.90215 5.7393 5.34747 1.82362C5.31809 1.61556 5.32998 1.40376 5.38247 1.2003C5.43495 0.996838 5.527 0.80571 5.65336 0.637827C5.77971 0.469944 5.9379 0.328595 6.11888 0.221851C6.29987 0.115107 6.50011 0.0450596 6.70817 0.015708C7.12792 -0.0417533 7.55339 0.0688894 7.89197 0.323559C8.23056 0.578228 8.45486 0.956314 8.51608 1.37554C9.20769 6.26798 7.31051 10.1239 5.63781 13.5265C2.98575 18.9173 0.891835 23.1753 8.2084 30.8177C8.55074 31.1748 8.70761 31.6697 8.63568 32.1594C8.38174 33.8728 8.36787 35.6001 8.35487 37.4288C8.33667 39.8304 8.31847 42.3152 7.73432 44.9161C7.65456 45.2703 7.45683 45.5869 7.17354 45.814C6.89025 46.041 6.53822 46.1651 6.17516 46.1659Z" fill="#12AD7A"/>
<path d="M13.503 15.3507C11.8623 15.3507 10.1246 15.0405 8.3583 14.341C7.97655 14.176 7.67404 13.8688 7.51481 13.4846C7.35558 13.1004 7.35215 12.6693 7.50523 12.2826C7.65832 11.8958 7.9559 11.5839 8.33497 11.4128C8.71404 11.2416 9.14483 11.2248 9.53613 11.3657C14.8108 13.4562 19.3011 10.9809 20.5144 8.39125C20.6016 8.19794 20.7263 8.02388 20.8814 7.8792C21.0364 7.73452 21.2186 7.62211 21.4175 7.54849C21.6164 7.47487 21.8279 7.44152 22.0397 7.45037C22.2516 7.45922 22.4596 7.51011 22.6516 7.60006C22.8437 7.69001 23.0159 7.81724 23.1583 7.97435C23.3007 8.13146 23.4105 8.31531 23.4812 8.51522C23.5519 8.71513 23.5822 8.9271 23.5703 9.13882C23.5584 9.35054 23.5045 9.55777 23.4118 9.74848C21.9332 12.9058 18.1051 15.3507 13.503 15.3507Z" fill="#12AD7A"/>
<path d="M13.821 10.46C13.249 10.46 12.6943 10.226 12.287 9.81957C11.8823 9.41317 11.6551 8.86298 11.6551 8.28943C11.6551 7.71589 11.8823 7.1657 12.287 6.7593C13.093 5.95328 14.5491 5.95328 15.3551 6.7593C15.7537 7.15797 15.9878 7.72132 15.9878 8.29333C15.9878 8.85668 15.7537 9.41136 15.3551 9.81957C14.9477 10.2269 14.3844 10.46 13.821 10.46Z" fill="#12AD7A"/>
</g>
<defs>
<clipPath id="clip0_18_2299">
<rect width="49.9636" height="50" fill="white"/>
</clipPath>
</defs>
</svg>
