<svg width="50" height="50" viewBox="0 0 50 50" fill="none" xmlns="http://www.w3.org/2000/svg">
<path d="M13.9969 30.8219C12.0656 31.8422 10.3094 33.1578 8.9328 34.8516L5.39061 39.211C5.12913 39.5325 5.00609 39.9448 5.04858 40.3571C5.09107 40.7694 5.2956 41.1479 5.61717 41.4094C5.93875 41.6709 6.35103 41.7939 6.76332 41.7514C7.1756 41.7089 7.55413 41.5044 7.81561 41.1828L11.5734 36.5578C12.4144 35.5262 13.4449 34.6649 14.6094 34.0203C17.3937 32.4797 20.8203 28.9094 22.0984 25.9938C25.125 19.0891 25.6422 13.2594 23.6344 8.64533C21.3109 3.30158 16.4469 1.70158 16.2406 1.63595C15.8457 1.51039 15.4171 1.54685 15.049 1.73732C14.681 1.92779 14.4037 2.25665 14.2781 2.65158C14.1525 3.0465 14.189 3.47513 14.3795 3.84317C14.5699 4.21121 14.8988 4.48852 15.2937 4.61408C15.3297 4.62502 19.0047 5.83595 20.7687 9.89064C20.95 10.3078 21.0891 10.7485 21.2187 11.1938C17.5375 11.1219 12.7406 11.7969 10.8969 15.4828C10.7114 15.8537 10.6809 16.2831 10.812 16.6765C10.9432 17.0699 11.2252 17.395 11.5961 17.5805C11.967 17.7659 12.3963 17.7964 12.7897 17.6653C13.1831 17.5342 13.5083 17.2522 13.6937 16.8813C14.9062 14.4531 19.1875 14.2375 21.6781 14.3344C21.7719 17.6235 20.7953 21.4875 18.7031 25.9094C17.704 28.0107 16.0534 29.7336 13.9969 30.8219ZM10.8562 47.0578C11.0444 47.1397 11.2468 47.1837 11.452 47.1874C11.6572 47.191 11.8611 47.1542 12.052 47.079C12.2429 47.0039 12.4172 46.8918 12.5649 46.7493C12.7125 46.6068 12.8306 46.4366 12.9125 46.2485C13.7297 44.361 14.7641 42.5078 15.6734 41.2016C16.3547 40.225 17.8484 40.3735 18.3562 41.45C18.5281 41.8125 18.6875 42.1656 18.8234 42.4656C20.0672 45.211 21.4781 48.325 24.1859 48.436L24.2516 48.4375C24.6594 48.4361 25.0506 48.2752 25.3414 47.9892C25.6323 47.7032 25.7998 47.3149 25.8081 46.9071C25.8165 46.4993 25.6651 46.1044 25.3862 45.8067C25.1073 45.5091 24.7231 45.3323 24.3156 45.3141C23.5297 45.2813 22.2734 42.5063 21.6703 41.1735C20.4984 38.5891 19.3 35.9188 16.9141 36.3094C13.9016 36.8094 11.1062 42.5578 10.0453 45.0031C9.88062 45.3834 9.8737 45.8134 10.0261 46.1987C10.1784 46.5841 10.4761 46.8931 10.8562 47.0578ZM43.3953 28.1531C43.6363 28.1533 43.8741 28.0977 44.09 27.9907C44.3059 27.8836 44.4942 27.7281 44.6401 27.5363C44.7859 27.3444 44.8854 27.1214 44.9308 26.8847C44.9761 26.6481 44.9661 26.4041 44.9016 26.1719C43.3281 20.5047 37.7609 17.25 34.5844 15.8125C33.4187 15.286 32.6078 14.2813 32.4172 13.1281C31.025 4.70314 26.1562 1.87814 25.9484 1.76252C25.5903 1.56192 25.1673 1.51112 24.7719 1.62118C24.3764 1.73124 24.0405 1.99324 23.8375 2.35002C23.6336 2.70856 23.579 3.13293 23.6854 3.53143C23.7918 3.92992 24.0507 4.27055 24.4062 4.4797C24.5609 4.57033 28.2031 6.78752 29.3344 13.636C29.6937 15.8235 31.1765 17.7 33.2969 18.661C35.9765 19.8719 40.6562 22.5672 41.8906 27.0078C41.9818 27.3369 42.1783 27.6271 42.45 27.8339C42.7218 28.0408 43.0538 28.1529 43.3953 28.1531ZM30.4844 24.7578H30.5156C36.6344 24.8766 38.325 31.6141 38.4047 31.9438C38.5037 32.3418 38.7552 32.6849 39.1049 32.8991C39.4547 33.1133 39.8746 33.1814 40.2742 33.0887C40.6737 32.996 41.0207 32.75 41.2404 32.4036C41.4601 32.0573 41.5348 31.6385 41.4484 31.2375C40.6922 27.9719 37.4484 21.7672 30.5766 21.6328C28.7969 21.6328 27.2172 22.5063 26.3047 23.9985C24.4187 27.0735 19.2547 37.8469 31.9594 47.2828C32.1238 47.4058 32.3109 47.4951 32.51 47.5455C32.7091 47.5959 32.9161 47.6064 33.1193 47.5765C33.3224 47.5466 33.5177 47.4768 33.6937 47.3712C33.8698 47.2655 34.0233 47.1261 34.1453 46.961C34.2678 46.7961 34.3567 46.6088 34.4067 46.4096C34.4568 46.2104 34.4671 46.0033 34.4371 45.8001C34.407 45.597 34.3372 45.4017 34.2317 45.2256C34.1261 45.0494 33.9869 44.8958 33.8219 44.7735C29.9328 41.886 27.989 38.9344 27.1906 36.1703C32.1125 36.4406 34.6828 38.8235 34.7969 38.9375C35.0896 39.2285 35.4856 39.3919 35.8984 39.3919C36.3112 39.3919 36.7072 39.2285 37 38.9375C37.6094 38.3281 37.6094 37.3438 37 36.7188C36.8359 36.5703 33.3078 33.1313 26.7344 33.0047C26.7312 30.0297 27.8625 27.4375 28.9703 25.6297C29.2953 25.0969 29.8859 24.7578 30.4844 24.7578Z" fill="#12AD7A"/>
</svg>
