<svg width="24" height="25" viewBox="0 0 24 25" fill="none" xmlns="http://www.w3.org/2000/svg">
<path fill-rule="evenodd" clip-rule="evenodd" d="M16.4147 8.00036C16.5698 8.00046 16.7185 8.06212 16.8282 8.1718C16.9379 8.28148 16.9995 8.4302 16.9996 8.58531L16.9996 15.2073C17.0024 15.2859 16.9893 15.3642 16.9612 15.4376C16.933 15.511 16.8904 15.578 16.8358 15.6345C16.7812 15.6911 16.7158 15.736 16.6434 15.7668C16.5711 15.7975 16.4933 15.8133 16.4147 15.8133C16.3361 15.8133 16.2583 15.7975 16.1859 15.7668C16.1136 15.736 16.0482 15.6911 15.9936 15.6345C15.939 15.578 15.8963 15.511 15.8682 15.4376C15.84 15.3642 15.827 15.2859 15.8297 15.2073L15.8297 9.99801L7.99919 17.8286C7.88942 17.9383 7.74054 18 7.58531 18C7.43008 18 7.2812 17.9383 7.17143 17.8286C7.06167 17.7188 7 17.5699 7 17.4147C7 17.2595 7.06167 17.1106 7.17143 17.0008L15.002 9.17026H9.79266C9.7141 9.17303 9.6358 9.15995 9.56241 9.1318C9.48902 9.10366 9.42205 9.06102 9.3655 9.00642C9.30894 8.95183 9.26397 8.88641 9.23325 8.81406C9.20253 8.74171 9.1867 8.66391 9.1867 8.58531C9.1867 8.50671 9.20253 8.42891 9.23325 8.35656C9.26397 8.28421 9.30894 8.21879 9.3655 8.1642C9.42205 8.10961 9.48902 8.06696 9.56241 8.03882C9.6358 8.01067 9.7141 7.99759 9.79266 8.00036L16.4147 8.00036Z" fill="#B9BDC1"/>
</svg>
