<svg width="23" height="23" viewBox="0 0 23 23" fill="none" xmlns="http://www.w3.org/2000/svg">
<path d="M3.80393 12.4733C4.65548 12.7499 5.80131 13.0736 6.39505 13.0864L6.38424 13.5862C6.38426 13.5862 6.38429 13.5862 6.38431 13.5862C7.07031 13.6011 7.77429 13.3196 8.48378 12.8319C10.7534 11.3006 12.4719 10.1487 13.6411 9.37586C13.7629 9.29533 13.8787 9.21896 13.9884 9.14677C13.7032 9.4229 13.3921 9.71929 13.0781 10.0158C12.528 10.5353 11.9608 11.0629 11.5173 11.4754C11.0853 11.8772 10.7708 12.1698 10.7041 12.2391C10.5939 12.3536 10.4805 12.4638 10.365 12.5752C10.3517 12.588 10.3384 12.6009 10.325 12.6138C10.2242 12.711 10.1208 12.8106 10.0246 12.9085C9.81439 13.1224 9.58678 13.3774 9.45804 13.6706C9.31428 13.9981 9.29772 14.3648 9.49165 14.7363C9.66669 15.0717 9.99226 15.3695 10.4298 15.6578L10.4299 15.6578C11.1132 16.1079 11.6585 16.4794 12.2066 16.8526L12.2672 16.8939C12.8359 17.2812 13.4125 17.6734 14.1494 18.1567L14.1496 18.1569C14.3359 18.279 14.5131 18.4053 14.6946 18.5346C14.7315 18.5609 14.7686 18.5874 14.806 18.6139C15.0222 18.7675 15.2476 18.9246 15.479 19.0605C15.9446 19.334 16.4782 19.5485 17.11 19.4905C17.9137 19.4167 18.4531 18.6727 18.6938 17.3753C19.2455 14.4257 20.3352 8.01221 20.5879 5.3504M20.5879 5.3504C20.5878 5.35095 20.5878 5.3515 20.5877 5.35205L20.0903 5.30152L20.588 5.34874C20.588 5.34929 20.5879 5.34984 20.5879 5.3504Z" stroke="#2AABEE"/>
</svg>
