<svg width="101" height="101" viewBox="0 0 101 101" fill="none" xmlns="http://www.w3.org/2000/svg">
<circle opacity="0.2" cx="50.5" cy="50.5" r="50" fill="#12AD7A"/>
<path fill-rule="evenodd" clip-rule="evenodd" d="M39.8313 37.6078C41.4784 39.4028 44.2617 40.1734 49.3607 40.2822C49.651 36.4311 51.1348 33.398 53.3304 31.2679C55.7703 28.9006 59.0059 27.7337 62.2163 27.7337C65.4267 27.7337 68.6636 28.9006 71.1035 31.2679C73.5602 33.6506 75.1249 37.1667 75.1249 41.692V57.0462C75.1249 61.3481 74.4089 65.8413 72.2412 69.3016C70.0092 72.8638 66.3242 75.192 60.8093 75.192C55.1673 75.192 51.2408 71.8448 47.6494 68.7461L47.493 68.6107C43.8778 65.4896 40.5069 62.5821 35.7164 61.9316C33.3672 61.9497 31.7857 62.6672 30.6816 63.6499C29.537 64.6688 28.7972 66.0702 28.3366 67.575C27.876 69.0769 27.7169 70.6039 27.6778 71.7708C27.6577 72.3618 27.6665 72.9534 27.7043 73.5435C27.7064 73.5738 27.7087 73.604 27.7113 73.6343L27.7141 73.6538L26.3252 73.7962C24.9364 73.9386 24.9364 73.9372 24.9364 73.9358V73.9316L24.935 73.919L24.9308 73.8813C24.9143 73.6834 24.9017 73.4851 24.8931 73.2867C24.8763 72.8945 24.8652 72.3403 24.8875 71.6759C24.9322 70.3596 25.1108 68.5702 25.6678 66.757C26.2219 64.9466 27.1767 63.0315 28.8252 61.5645C30.5002 60.0737 32.7865 59.1399 35.8057 59.1399C36.5078 59.1399 37.1694 59.1553 37.8045 59.1706C38.9854 59.1986 40.077 59.2265 41.1713 59.1427C42.7835 59.0227 44.1123 58.6709 45.2108 57.8488C47.3144 56.2715 49.1359 52.5097 49.2964 43.0739C44.1053 42.9664 40.2514 42.1945 37.7752 39.495C36.4297 38.0294 35.5991 36.1101 35.098 33.7358C34.5997 31.3712 34.4099 28.4665 34.4099 24.942H37.2015C37.2015 28.3967 37.39 31.0753 37.8297 33.1593C38.268 35.2349 38.9366 36.6307 39.8313 37.6078ZM49.122 66.3285C47.2948 64.7512 45.3421 63.0622 43.0822 61.7055C44.3999 61.45 45.7008 60.9699 46.8858 60.0821C48.7004 58.7212 50.0683 56.5451 50.9477 53.2035C53.2453 51.6541 55.1352 51.3261 56.7935 51.5075C58.569 51.7029 60.2091 52.4888 62.0181 53.4059L62.3196 53.5594C63.9625 54.3941 65.8161 55.3377 67.7857 55.5847C69.347 55.7893 70.9337 55.5122 72.3333 54.7905V57.0462C72.3333 61.1192 71.6409 65.001 69.8752 67.8206C68.1723 70.5397 65.3946 72.399 60.8079 72.399C56.3454 72.399 53.1615 69.8153 49.4737 66.6328L49.122 66.3285ZM72.3333 51.4991V41.692C72.3333 37.8423 71.0212 35.0758 69.1592 33.2724C67.2832 31.4508 64.7623 30.5254 62.2163 30.5254C59.6703 30.5254 57.1494 31.4508 55.2734 33.2724C53.4128 35.0772 52.1007 37.8423 52.1007 41.692C52.1007 44.7545 51.9443 47.3814 51.6387 49.6287C53.5677 48.7717 55.3767 48.5442 57.0992 48.7326C59.4469 48.9908 61.5128 50.0196 63.2813 50.9157L63.4069 50.9799C65.2089 51.8928 66.662 52.6298 68.1346 52.8154C69.3769 52.9717 70.7225 52.7372 72.3333 51.4991Z" fill="#12AD7A"/>
</svg>
