<svg width="22" height="23" viewBox="0 0 22 23" fill="none" xmlns="http://www.w3.org/2000/svg">
<path d="M11.0364 2.33331C6.03141 2.33331 1.95224 6.41247 1.95224 11.4175C1.95224 13.0216 2.37391 14.58 3.16224 15.955L1.87891 20.6666L6.69141 19.4016C8.02057 20.1258 9.51474 20.5108 11.0364 20.5108C16.0414 20.5108 20.1206 16.4316 20.1206 11.4266C20.1206 8.99747 19.1764 6.71497 17.4622 5.00081C16.6218 4.15191 15.6208 3.47884 14.5176 3.02085C13.4143 2.56287 12.2309 2.32915 11.0364 2.33331ZM11.0456 3.86414C13.0622 3.86414 14.9506 4.65247 16.3806 6.08247C17.0824 6.78405 17.6388 7.61726 18.0179 8.53434C18.397 9.45141 18.5913 10.4343 18.5897 11.4266C18.5897 15.5883 15.1981 18.9708 11.0364 18.9708C9.67974 18.9708 8.35057 18.6133 7.19557 17.9166L6.92057 17.7608L4.06057 18.5125L4.82141 15.7258L4.63807 15.4325C3.88085 14.2304 3.48033 12.8381 3.48307 11.4175C3.49224 7.25581 6.87474 3.86414 11.0456 3.86414ZM7.81891 7.21914C7.67224 7.21914 7.42474 7.27414 7.21391 7.50331C7.01224 7.73247 6.41641 8.29164 6.41641 9.40081C6.41641 10.5191 7.23224 11.5916 7.33307 11.7475C7.46141 11.9033 8.94641 14.195 11.2289 15.1666C11.7697 15.4141 12.1914 15.5516 12.5214 15.6525C13.0622 15.8266 13.5572 15.7991 13.9514 15.7441C14.3914 15.68 15.2897 15.1941 15.4822 14.6625C15.6747 14.1308 15.6747 13.6816 15.6197 13.5808C15.5556 13.4891 15.4089 13.4341 15.1797 13.3333C14.9506 13.205 13.8322 12.655 13.6306 12.5816C13.4197 12.5083 13.2914 12.4716 13.1172 12.6916C12.9706 12.9208 12.5306 13.4341 12.4022 13.5808C12.2647 13.7366 12.1364 13.755 11.9164 13.645C11.6781 13.5258 10.9447 13.2875 10.0831 12.5175C9.40474 11.9125 8.95557 11.17 8.81807 10.9408C8.70807 10.7208 8.80891 10.5833 8.91891 10.4825C9.01974 10.3816 9.16641 10.2166 9.25807 10.0791C9.37724 9.95081 9.41391 9.84997 9.48724 9.70331C9.56057 9.54747 9.52391 9.41914 9.46891 9.30914C9.41391 9.20831 8.95557 8.07164 8.76307 7.62247C8.57974 7.18247 8.39641 7.23747 8.24974 7.22831C8.12141 7.22831 7.97474 7.21914 7.81891 7.21914Z" fill="#60D669"/>
</svg>
